<svg width="37" height="37" viewBox="0 0 37 37" fill="none" xmlns="http://www.w3.org/2000/svg">
<circle cx="18.5" cy="18.5" r="18.5" fill="white"/>
<path d="M17.3085 13.5919C14.176 14.0697 11.3267 16.4058 11.3267 19.733C11.3267 22.0337 12.654 23.5911 14.5653 23.5911C16.5829 23.5911 17.7686 21.8744 17.7686 19.7684C16.0873 19.6976 14.937 18.6534 14.937 17.1668C14.937 15.6979 16.0519 14.7245 17.5916 14.406L17.3085 13.5919ZM25.2194 13.5919C22.0869 14.0697 19.2375 16.4058 19.2375 19.733C19.2375 22.0337 20.5649 23.5911 22.4762 23.5911C24.4938 23.5911 25.6795 21.8744 25.6795 19.7684C23.9982 19.6976 22.8302 18.6534 22.8302 17.1668C22.8302 15.6979 23.9451 14.7245 25.4848 14.406L25.2194 13.5919Z" fill="#6CAE75"/>
</svg>
