<svg width="77" height="77" viewBox="0 0 77 77" fill="none" xmlns="http://www.w3.org/2000/svg">
<circle cx="38.5" cy="38.5" r="38.5" fill="white"/>
<path d="M36.0202 28.2856C29.5012 29.2801 23.5715 34.1417 23.5715 41.0658C23.5715 45.8537 26.3338 49.0948 30.3115 49.0948C34.5101 49.0948 36.9778 45.5223 36.9778 41.1394C33.4789 40.9921 31.0849 38.8191 31.0849 35.7254C31.0849 32.6685 33.4052 30.6428 36.6094 29.9798L36.0202 28.2856ZM52.4833 28.2856C45.9644 29.2801 40.0347 34.1417 40.0347 41.0658C40.0347 45.8537 42.7969 49.0948 46.7746 49.0948C50.9733 49.0948 53.4409 45.5223 53.4409 41.1394C49.942 40.9921 47.5112 38.8191 47.5112 35.7254C47.5112 32.6685 49.8315 30.6428 53.0358 29.9798L52.4833 28.2856Z" fill="#6CAE75"/>
</svg>
